<svg width="60" height="58" viewBox="0 0 60 58" fill="none" xmlns="http://www.w3.org/2000/svg">
<path d="M31.7484 0C33.7525 2.79468 35.5786 5.70496 37.2167 8.71465C37.4578 8.68164 37.7009 8.66495 37.9444 8.6647C38.9271 8.6649 39.8898 8.93283 40.7224 9.43781C41.555 9.9428 42.2239 10.6644 42.6523 11.5201C44.9817 11.3186 47.3179 11.1992 49.6563 11.1623C51.0032 11.1425 52.3563 11.1497 53.7153 11.1839C48.5658 4.76099 40.6912 0.494798 31.7484 0ZM27.5079 0.0540024C27.4053 0.0621028 27.3021 0.067503 27.1995 0.0762784C24.8449 4.73804 23.003 9.34445 21.6865 13.8908C22.2511 14.2288 22.7441 14.6678 23.1391 15.1841C26.313 14.2555 29.5333 13.4827 32.7879 12.8688C32.9616 11.8928 33.4273 10.9876 34.1274 10.2652C32.2458 6.81309 30.046 3.40823 27.5079 0.0540024ZM23.0149 0.743884C15.7406 2.4202 9.37702 6.66745 5.17395 12.6514C8.39413 13.3664 11.5822 14.2104 14.73 15.1814C15.154 14.6284 15.6902 14.1649 16.3057 13.8193C16.9212 13.4737 17.6031 13.2531 18.3098 13.1712C19.4784 9.05149 21.0467 4.90545 23.0149 0.743884ZM51.7053 14.5267C48.7877 14.5084 45.9007 14.6239 43.0416 14.8642C42.7874 15.9316 42.1822 16.8904 41.317 17.5967C42.279 20.1 43.0981 22.6525 43.7707 25.2428C44.4542 25.313 45.1168 25.5129 45.7205 25.8309C46.3242 26.149 46.8572 26.579 47.2891 27.0964C51.3337 25.9249 55.4525 25.0083 59.6198 24.3524C59.0583 20.9421 57.8679 17.6572 56.1056 14.6542C54.6311 14.5791 53.1644 14.537 51.7053 14.5267ZM3.30139 15.7161C1.79147 18.5602 0.781168 21.6276 0.31186 24.7925C4.70163 22.3543 9.16604 20.2266 13.7072 18.4216L13.7058 18.4013C10.3346 17.3604 6.86163 16.4741 3.30139 15.7161ZM33.367 16.1778C30.2625 16.7636 27.1904 17.5003 24.1625 18.3851C24.1602 18.4426 24.157 18.5 24.1528 18.5573C29.5603 20.7741 34.7545 23.4496 39.6746 26.5523C39.9032 26.3493 40.15 26.1663 40.4121 26.0056C39.7735 23.5599 38.9965 21.15 38.0846 18.7868L37.9444 18.7895C37.0099 18.7891 36.0926 18.5466 35.2878 18.0872C34.4829 17.6278 33.8199 16.9683 33.3677 16.1771M15.0049 21.5375C9.91744 23.5667 4.9186 26.0218 0.00279083 28.8798L0 28.9737C0 36.6461 3.06488 43.607 8.0693 48.7906C10.9234 46.3201 13.9017 43.9873 16.9933 41.8006C15.6816 35.5235 15.4912 29.1067 16.3507 22.5994C15.844 22.3211 15.3889 21.9629 15.0042 21.5396M22.763 21.6469C21.9592 22.4822 20.8873 23.0303 19.7212 23.2022C18.9872 28.8015 19.0919 34.3037 20.0756 39.7026C25.7672 35.9663 31.7351 32.8247 37.9863 30.3102V30.2785C37.9868 30.0322 38.0059 29.7863 38.0435 29.5427C33.2075 26.4687 28.093 23.8259 22.763 21.6469ZM59.9672 27.7181C56.0768 28.3409 52.2306 29.1994 48.4514 30.2886C48.4499 31.0226 48.2835 31.7474 47.9637 32.413C51.2852 35.0391 54.4244 37.874 57.3607 40.8994C59.1055 37.1505 60.0052 33.0851 60 28.9737C60 28.5525 59.986 28.1346 59.9672 27.7181ZM39.1639 33.4748C32.7621 36.0608 26.6679 39.3361 20.8577 43.2668C22.1274 48.2202 24.1486 53.0837 26.9477 57.8522C27.9514 57.9507 28.9688 58 30 58C34.0688 58 37.9444 57.217 41.4788 55.8034C42.66 48.7737 42.8923 41.9174 42.1291 35.2285C40.9631 34.9878 39.917 34.3691 39.1639 33.4748ZM45.5693 34.8653C46.2879 41.1094 46.1798 47.4817 45.2832 53.9633C49.5215 51.5363 53.0787 48.1393 55.6423 44.0707C52.5209 40.7693 49.1543 37.6931 45.5693 34.8667M17.8646 45.3668C15.3635 47.1903 12.9407 49.1124 10.6026 51.1282C14.0707 53.9779 18.1662 56.0231 22.576 57.1076C20.5395 53.2626 18.9746 49.3448 17.8646 45.3668Z" fill="#003D5C"/>
</svg>
